<svg width="20" height="21" viewBox="0 0 20 21" fill="none" xmlns="http://www.w3.org/2000/svg">
<path fill-rule="evenodd" clip-rule="evenodd" d="M6.25 0.922363H13.75C17.2013 0.922363 20 3.72111 20 7.17236V14.6724C20 18.1236 17.2013 20.9224 13.75 20.9224H6.25C2.79875 20.9224 0 18.1236 0 14.6724V7.17236C0 3.72111 2.79875 0.922363 6.25 0.922363ZM13.75 19.0474C16.1625 19.0474 18.125 17.0849 18.125 14.6724V7.17236C18.125 4.75986 16.1625 2.79736 13.75 2.79736H6.25C3.8375 2.79736 1.875 4.75986 1.875 7.17236V14.6724C1.875 17.0849 3.8375 19.0474 6.25 19.0474H13.75Z" fill="#1E2833"/>
<path fill-rule="evenodd" clip-rule="evenodd" d="M5 10.9224C5 8.16111 7.23875 5.92236 10 5.92236C12.7613 5.92236 15 8.16111 15 10.9224C15 13.6836 12.7613 15.9224 10 15.9224C7.23875 15.9224 5 13.6836 5 10.9224ZM6.875 10.9224C6.875 12.6449 8.2775 14.0474 10 14.0474C11.7225 14.0474 13.125 12.6449 13.125 10.9224C13.125 9.19861 11.7225 7.79736 10 7.79736C8.2775 7.79736 6.875 9.19861 6.875 10.9224Z" fill="#1E2833"/>
<circle cx="15.3752" cy="5.54711" r="0.66625" fill="#1E2833"/>
</svg>
