<svg width="206" height="124" viewBox="0 0 206 124" fill="none" xmlns="http://www.w3.org/2000/svg">
<path fill-rule="evenodd" clip-rule="evenodd" d="M67.2393 1.16381C61.3348 3.4083 52.12 8.33893 45.452 12.8211C37.4743 18.1838 26.5134 28.4116 21.0548 35.5867C11.2503 48.4739 6.12122 61.5815 3.17395 81.2845C1.19179 94.5334 1.05084 97.8972 0.86796 136.353C0.673502 177.251 0.49621 174.684 3.73697 177.924C6.86394 181.052 5.01395 180.911 43.1021 180.911C79.8889 180.911 78.6012 180.986 81.6403 178.668C82.4165 178.076 83.5366 176.766 84.13 175.758L85.2081 173.923L85.3163 139.078L85.4249 104.233L84.562 102.227C83.549 99.8721 80.7686 97.2479 78.6687 96.6645C77.8077 96.4257 70.6338 96.262 60.9503 96.2608L44.6786 96.2584L44.6786 93.7476C44.6786 88.0307 46.3085 78.3288 48.349 71.9008C51.0615 63.3548 55.2003 56.4644 61.1954 50.5136C66.0865 45.6584 71.7503 41.8027 79.712 37.9071C85.5339 35.0588 86.4072 34.3521 88.0068 31.1932C88.4305 30.3566 88.7128 28.8656 88.7268 27.3918C88.7467 25.2583 88.4808 24.3918 86.5142 20.1827C79.0304 4.16619 78.4183 3.14995 75.2921 1.55513C72.9997 0.38556 69.7078 0.225838 67.2393 1.16381ZM185.319 0.871105C183.106 1.27959 172.7 6.37154 167.066 9.80317C149.971 20.2143 136.628 34.1624 128.819 49.782C123.11 61.2034 120.281 72.7409 118.29 92.7405C117.76 98.0553 117.609 106.002 117.466 135.95C117.268 177.297 117.089 174.679 120.334 177.924C123.461 181.051 121.614 180.911 159.679 180.911C196.781 180.911 195.48 180.992 198.497 178.505C199.289 177.852 200.402 176.385 200.971 175.243L202.005 173.167L201.996 138.606C201.987 104.7 201.972 104.011 201.174 102.248C200.239 100.182 198.813 98.5736 196.814 97.3285C195.449 96.478 195.02 96.4533 178.252 96.2584L161.087 96.0587L161.209 92.8643C161.524 84.6135 163.516 74.7941 166.282 67.8574C169.127 60.725 172.533 55.5225 177.702 50.4161C182.407 45.769 187.21 42.4576 194.75 38.6642C201.978 35.0277 203.998 33.3518 204.816 30.3139C205.784 26.7181 205.274 24.9065 200.509 14.9997C197.849 9.47095 195.489 5.11772 194.578 4.06196C192.265 1.37982 188.881 0.213449 185.319 0.871105Z" fill="#F1A501"/>
</svg>
