<svg width="206" height="131" viewBox="0 0 206 131" fill="none" xmlns="http://www.w3.org/2000/svg">
<path fill-rule="evenodd" clip-rule="evenodd" d="M138.761 129.836C144.665 127.592 153.88 122.661 160.548 118.179C168.526 112.816 179.487 102.588 184.945 95.4133C194.75 82.5261 199.879 69.4185 202.826 49.7155C204.808 36.4666 204.949 33.1028 205.132 -5.35268C205.327 -46.2511 205.504 -43.684 202.263 -46.9244C199.136 -50.0517 200.986 -49.9112 162.898 -49.9112C126.111 -49.9112 127.399 -49.9862 124.36 -47.6679C123.583 -47.0761 122.463 -45.7664 121.87 -44.7577L120.792 -42.9233L120.684 -8.07793L120.575 26.7675L121.438 28.7732C122.451 31.1279 125.231 33.7521 127.331 34.3355C128.192 34.5743 135.366 34.738 145.05 34.7392L161.321 34.7416L161.321 37.2524C161.321 42.9693 159.691 52.6712 157.651 59.0992C154.939 67.6452 150.8 74.5356 144.805 80.4864C139.913 85.3416 134.25 89.1973 126.288 93.0929C120.466 95.9411 119.593 96.6479 117.993 99.8068C117.57 100.643 117.287 102.134 117.273 103.608C117.253 105.742 117.519 106.608 119.486 110.817C126.97 126.834 127.582 127.85 130.708 129.445C133 130.614 136.292 130.774 138.761 129.836ZM20.6812 130.129C22.8942 129.72 33.2997 124.628 38.9343 121.197C56.0286 110.786 69.3722 96.8376 77.1806 81.2179C82.8903 69.7966 85.7185 58.2591 87.7103 38.2595C88.2398 32.9447 88.3915 24.9981 88.5344 -4.95019C88.7321 -46.2975 88.911 -43.6792 85.6658 -46.9244C82.5389 -50.0513 84.3865 -49.9112 46.3215 -49.9112C9.21919 -49.9112 10.5197 -49.9919 7.50256 -47.505C6.71114 -46.8525 5.59828 -45.3847 5.02927 -44.2431L3.99507 -42.1675L4.00384 -7.60636C4.01263 26.3003 4.02821 26.989 4.82603 28.752C5.7608 30.8176 7.18672 32.4264 9.18604 33.6714C10.5513 34.522 10.9801 34.5467 27.7481 34.7416L44.9127 34.9412L44.7909 38.1357C44.4759 46.3865 42.4841 56.2058 39.7177 63.1426C36.8735 70.275 33.467 75.4775 28.2976 80.5838C23.593 85.231 18.7897 88.5424 11.25 92.3358C4.0222 95.9723 2.00211 97.6482 1.18393 100.686C0.215609 104.282 0.725558 106.093 5.49126 116C8.15103 121.529 10.5113 125.882 11.4217 126.938C13.7345 129.62 17.119 130.787 20.6812 130.129Z" fill="#F1A501"/>
</svg>
