<svg width="20" height="16" viewBox="0 0 20 16" fill="none" xmlns="http://www.w3.org/2000/svg">
<path d="M19.5556 1.91469C18.8283 2.23369 18.0534 2.44514 17.2456 2.5478C18.0767 2.05158 18.711 1.2718 19.0092 0.331914C18.2343 0.793914 17.3788 1.12025 16.467 1.30236C15.7312 0.518914 14.6826 0.0336914 13.5386 0.0336914C11.319 0.0336914 9.53211 1.83525 9.53211 4.0438C9.53211 4.36158 9.559 4.66714 9.625 4.95802C6.292 4.79547 3.34278 3.19802 1.36156 0.76458C1.01567 1.36469 0.812778 2.05158 0.812778 2.79102C0.812778 4.17947 1.52778 5.41025 2.59356 6.1228C1.94944 6.11058 1.31756 5.92358 0.782222 5.62902C0.782222 5.64125 0.782222 5.65714 0.782222 5.67302C0.782222 7.62125 2.17189 9.23947 3.99422 9.61225C3.66789 9.70147 3.31222 9.74425 2.94311 9.74425C2.68644 9.74425 2.42733 9.72958 2.18411 9.6758C2.70356 11.2635 4.17756 12.4307 5.93022 12.4686C4.56622 13.5356 2.83433 14.1785 0.959444 14.1785C0.630667 14.1785 0.315333 14.1638 0 14.1235C1.77589 15.2687 3.88056 15.9226 6.15022 15.9226C13.5276 15.9226 17.5609 9.81147 17.5609 4.51436C17.5609 4.33714 17.5548 4.16602 17.5462 3.99614C18.3419 3.43147 19.0104 2.72625 19.5556 1.91469Z" fill="#1E2833"/>
</svg>
